<svg xmlns="http://www.w3.org/2000/svg" viewBox="0 0 500 500"><defs><style>.cls-1{fill:#003e51;}.cls-2{fill:#e87722;}.cls-3{fill:#fff;}</style></defs><g id="background"><rect class="cls-1" width="500" height="500"/></g><g id="text"><path class="cls-2" d="M93,264h-5.5V242H93Z"/><path class="cls-2" d="M124.06,264h-4.62l-12.2-14.13V264h-5.49V242h5l11.77,13.48V242h5.5Z"/><path class="cls-2" d="M152.1,246h-8v18h-5.5V246h-8v-4H152.1Z"/><path class="cls-2" d="M174.91,264H158.64V242h16v4H164.14v4.62H174.2v4H164.14V260h10.77Z"/><path class="cls-2" d="M192.89,242c4.52,0,7.21,3,7.21,6.34,0,2.42-1.26,4.23-3.78,5.4,2.26,1.13,2.94,3.85,6,10.31h-6c-2.37-4.72-3.24-8.95-6.21-8.95h-1.59V264H183V242Zm-4.37,9h2.91c1.52,0,3-.64,3-2.52,0-1.65-1.07-2.49-3.14-2.49h-2.78Z"/><path class="cls-2" d="M231,264h-4.62l-12.19-14.13V264h-5.5V242h5l11.78,13.48V242H231Z"/><path class="cls-2" d="M262.21,264h-5.92l-1.81-4.36h-9.87L243,264h-5.82l8.9-22h6.37ZM249.3,247.23l-3.23,8.57h6.79Z"/><path class="cls-2" d="M285.14,246h-8v18h-5.5V246h-8v-4h21.47Z"/><path class="cls-2" d="M297.25,264h-5.5V242h5.5Z"/><path class="cls-2" d="M317.55,264.31c-8.09,0-12.65-5.7-12.65-11.32,0-5.34,4.33-11.32,12.65-11.32s12.61,6,12.61,11.32C330.16,258.65,325.47,264.31,317.55,264.31Zm0-18.05c-4.21,0-7,2.68-7,6.73s2.78,6.72,7,6.72S324.5,257,324.5,253,321.72,246.26,317.55,246.26Z"/><path class="cls-2" d="M360.07,264h-4.62l-12.19-14.13V264h-5.5V242h5l11.78,13.48V242h5.49Z"/><path class="cls-2" d="M391.29,264h-5.92l-1.81-4.36h-9.87L372.05,264h-5.83l8.9-22h6.37Zm-12.9-16.78-3.24,8.57h6.79Z"/><path class="cls-2" d="M414.22,264H397.4V242h5.5v18h11.32Z"/><path class="cls-2" d="M142.3,381.6a50.42,50.42,0,0,0-22.11-5.46c-16,0-21.68,9.88-21.68,18.64,0,10.49,8.24,17.43,20.46,17.43,3.64,0,5.46-.35,9.8-2.08v-6.94h-8.58V392.35h23.32v24.19c-4.42,4.6-15.35,8-24.89,8C98,424.52,83.33,412,83.33,394.26c0-18,14.57-30.44,35.64-30.44,8.85,0,17.43,2,23.33,4.86Z"/><path class="cls-2" d="M186.06,364.6c12.14,0,19.34,8.16,19.34,17,0,6.5-3.38,11.36-10.15,14.48,6.07,3,7.9,10.32,16.22,27.66H195.25c-6.33-12.66-8.67-24-16.64-24h-4.25v24H159.62V364.6Zm-11.7,24.28h7.8c4.08,0,8.06-1.73,8.06-6.76,0-4.42-2.86-6.68-8.41-6.68h-7.45Z"/><path class="cls-2" d="M248.62,424.52c-21.67,0-33.9-15.26-33.9-30.35,0-14.31,11.62-30.35,33.9-30.35s33.82,16.13,33.82,30.35C282.44,409.35,269.87,424.52,248.62,424.52Zm0-48.38c-11.27,0-18.73,7.19-18.73,18s7.46,18,18.73,18,18.64-7.2,18.64-18S259.81,376.14,248.62,376.14Z"/><path class="cls-2" d="M351.73,364.6v33.56c0,19.6-13.35,26.36-29.57,26.36-17.16,0-29.56-8-29.56-26.27V364.6h14.74v34c0,8.5,6.15,13.62,14.65,13.62,7.81,0,15-4.08,15-14.66V364.6Z"/><path class="cls-2" d="M396.27,364.6c13.52,0,19.59,9.46,19.59,17.52,0,8.32-5.89,17.86-19.51,17.86H384.64v23.76H369.9V364.6Zm-11.63,24.54h6.85c6.77,0,9.2-2.42,9.2-6.85,0-5-2.87-6.85-10.84-6.85h-5.21Z"/><path class="cls-2" d="M144.8,340.55c-8.75,4.46-15.38,6.2-24.67,6.2-24.4,0-36.55-15.68-36.55-31.72,0-16.59,13.72-32.09,37.74-32.09,8.75,0,16.57,1.82,22.74,5.47v13.86c-6.9-3.83-13.9-6.39-21.63-6.39-13.35,0-22.74,7.84-22.74,18.87s9.3,19.05,22.37,19.05c8.19,0,13.72-2.55,22.74-6.83Z"/><path class="cls-2" d="M192.19,283.76c12.89,0,20.53,8.57,20.53,17.87,0,6.83-3.59,11.94-10.77,15.22,6.44,3.19,8.37,10.85,17.21,29.08H202c-6.72-13.31-9.21-25.25-17.68-25.25h-4.51v25.25H164.11V283.76Zm-12.43,25.52h8.29c4.32,0,8.56-1.82,8.56-7.11,0-4.64-3-7-8.93-7h-7.92Z"/><path class="cls-2" d="M249.27,345.93H233.62V283.76h15.65Z"/><path class="cls-2" d="M312.92,299.89c-9.11-4-14.54-5.56-19.88-5.56-5.62,0-9.2,2-9.2,5.11,0,9.39,31.93,6.74,31.93,28.44,0,11.94-10.12,18.87-24.11,18.87-11,0-16.39-2.83-22.64-6v-13.4c9,5.93,14.54,8,21.44,8,6,0,9.21-2.09,9.21-5.74,0-10.21-31.94-6.47-31.94-28.8,0-10.76,9.38-17.87,23.93-17.87,7,0,13.35,1.46,21.26,4.83Z"/><path class="cls-2" d="M349.42,345.93H333.77V283.76h15.65Z"/><path class="cls-2" d="M413.06,299.89c-9.11-4-14.54-5.56-19.88-5.56-5.61,0-9.2,2-9.2,5.11,0,9.39,31.94,6.74,31.94,28.44,0,11.94-10.13,18.87-24.12,18.87-10.95,0-16.38-2.83-22.64-6v-13.4c9,5.93,14.54,8,21.44,8,6,0,9.21-2.09,9.21-5.74,0-10.21-31.94-6.47-31.94-28.8,0-10.76,9.39-17.87,23.93-17.87,7,0,13.35,1.46,21.26,4.83Z"/></g><g id="symbol"><path class="cls-3" d="M253.7,73.32v63.14H190.75A63,63,0,1,0,253.7,73.32"/><path class="cls-3" d="M191.59,126h-6.1V68.25h57.72v6a62.57,62.57,0,0,1,10.49-.89V57.76H175v78.7h15.74v-.18a63.75,63.75,0,0,1,.85-10.31"/><path class="cls-2" d="M191.59,126h4.7V110.53a62.83,62.83,0,0,0-4.7,15.44Z"/><path class="cls-2" d="M224.44,80.54c-1.61.85-3.17,1.78-4.69,2.76V126h4.69Z"/><path class="cls-2" d="M205.67,95.61A62.15,62.15,0,0,0,201,102v24h4.69Z"/><path class="cls-2" d="M238.52,126h4.69V74.21c-1.59.26-3.15.59-4.69,1Z"/><path class="cls-2" d="M233.83,76.55c-1.6.53-3.16,1.11-4.7,1.76V126h4.7Z"/><path class="cls-2" d="M210.36,126h4.7V86.64q-2.44,1.9-4.7,4Z"/></g></svg>